DidactGothic.ufo
<glyph name="quotedbl" format="1">
  <advance width="337"/>
  <unicode hex="0022"/>
  <outline>
    <contour>
      <point x="208" y="434" type="line"/>
      <point x="208" y="698" type="line"/>
      <point x="278" y="698" type="line"/>
      <point x="278" y="434" type="line"/>
    </contour>
    <contour>
      <point x="60" y="434" type="line"/>
      <point x="60" y="698" type="line"/>
      <point x="130" y="698" type="line"/>
      <point x="130" y="434" type="line"/>
    </contour>
  </outline>
</glyph>
<glyph name="five" format="1">
  <advance width="574"/>
  <unicode hex="0035"/>
  <outline>
    <contour>
      <point x="47" y="76" type="qcurve"/>
      <point x="101" y="114" type="line"/>
      <point x="153" y="47"/>
      <point x="265" y="47" type="qcurve" smooth="yes"/>
      <point x="340" y="47"/>
      <point x="439" y="153"/>
      <point x="439" y="225" type="qcurve" smooth="yes"/>
      <point x="439" y="304"/>
      <point x="353" y="402"/>
      <point x="270" y="402" type="qcurve" smooth="yes"/>
      <point x="219" y="402"/>
      <point x="149" y="391"/>
      <point x="123" y="380"/>
      <point x="88" y="364" type="qcurve"/>
      <point x="88" y="698" type="line"/>
      <point x="442" y="698" type="line"/>
      <point x="442" y="628" type="line"/>
      <point x="164" y="628" type="line"/>
      <point x="164" y="454" type="line"/>
      <point x="221" y="466"/>
      <point x="270" y="466" type="qcurve" smooth="yes"/>
      <point x="386" y="466"/>
      <point x="508" y="344"/>
      <point x="508" y="225" type="qcurve" smooth="yes"/>
      <point x="508" y="118"/>
      <point x="376" y="-16"/>
      <point x="263" y="-16" type="qcurve" smooth="yes"/>
      <point x="121" y="-16"/>
    </contour>
  </outline>
</glyph>
<glyph name="D" format="1">
  <advance width="624"/>
  <unicode hex="0044"/>
  <outline>
    <contour>
      <point x="280" y="743" type="move" name="above"/>
    </contour>
    <contour>
      <point x="215" y="0" type="move" name="below"/>
    </contour>
    <contour>
      <point x="81" y="0" type="line"/>
      <point x="81" y="698" type="line"/>
      <point x="233" y="698" type="line" smooth="yes"/>
      <point x="301" y="698"/>
      <point x="422" y="656"/>
      <point x="521" y="574"/>
      <point x="579" y="436"/>
      <point x="579" y="260"/>
      <point x="521" y="123"/>
      <point x="422" y="41"/>
      <point x="301" y="0"/>
      <point x="233" y="0" type="qcurve" smooth="yes"/>
    </contour>
    <contour>
      <point x="158" y="628" type="line"/>
      <point x="158" y="70" type="line"/>
      <point x="211" y="70" type="line" smooth="yes"/>
      <point x="348" y="70"/>
      <point x="498" y="207"/>
      <point x="498" y="348" type="qcurve" smooth="yes"/>
      <point x="498" y="490"/>
      <point x="348" y="628"/>
      <point x="211" y="628" type="qcurve" smooth="yes"/>
    </contour>
  </outline>
</glyph>
<glyph name="E" format="1">
  <advance width="515"/>
  <unicode hex="0045"/>
  <outline>
    <contour>
      <point x="292" y="743" type="move" name="above"/>
    </contour>
    <contour>
      <point x="292" y="0" type="move" name="below"/>
    </contour>
    <contour>
      <point x="427" y="0" type="move" name="ogonek"/>
    </contour>
    <contour>
      <point x="81" y="0" type="line"/>
      <point x="81" y="698" type="line"/>
      <point x="472" y="698" type="line"/>
      <point x="472" y="634" type="line"/>
      <point x="158" y="634" type="line"/>
      <point x="158" y="411" type="line"/>
      <point x="403" y="411" type="line"/>
      <point x="403" y="348" type="line"/>
      <point x="158" y="348" type="line"/>
      <point x="158" y="63" type="line"/>
      <point x="475" y="63" type="line"/>
      <point x="475" y="0" type="line"/>
    </contour>
  </outline>
</glyph>
<glyph name="K" format="1">
  <advance width="545"/>
  <unicode hex="004B"/>
  <outline>
    <contour>
      <point x="281" y="743" type="move" name="above"/>
    </contour>
    <contour>
      <point x="296" y="0" type="move" name="below"/>
    </contour>
    <contour>
      <point x="81" y="0" type="line"/>
      <point x="81" y="698" type="line"/>
      <point x="158" y="698" type="line"/>
      <point x="158" y="370" type="line"/>
      <point x="433" y="698" type="line"/>
      <point x="532" y="698" type="line"/>
      <point x="272" y="388" type="line"/>
      <point x="544" y="0" type="line"/>
      <point x="451" y="0" type="line"/>
      <point x="221" y="328" type="line"/>
      <point x="158" y="252" type="line"/>
      <point x="158" y="0" type="line"/>
    </contour>
  </outline>
</glyph>
<glyph name="q" format="1">
  <advance width="574"/>
  <unicode hex="0071"/>
  <outline>
    <contour>
      <point x="105" y="164"/>
      <point x="204" y="47"/>
      <point x="342" y="47"/>
      <point x="441" y="164"/>
      <point x="441" y="314"/>
      <point x="342" y="432"/>
      <point x="204" y="432"/>
      <point x="105" y="314"/>
    </contour>
    <contour>
      <point x="441" y="75" type="line"/>
      <point x="377" y="-17"/>
      <point x="178" y="-17"/>
      <point x="35" y="136"/>
      <point x="35" y="342"/>
      <point x="180" y="495"/>
      <point x="380" y="495"/>
      <point x="441" y="406" type="qcurve"/>
      <point x="441" y="479" type="line"/>
      <point x="510" y="479" type="line"/>
      <point x="510" y="-205" type="line"/>
      <point x="441" y="-205" type="line"/>
    </contour>
  </outline>
</glyph>
<glyph name="x" format="1">
  <advance width="424"/>
  <unicode hex="0078"/>
  <outline>
    <contour>
      <point x="211" y="581" type="move" name="above"/>
    </contour>
    <contour>
      <point x="212" y="0" type="move" name="below"/>
    </contour>
    <contour>
      <point x="171" y="250" type="line"/>
      <point x="28" y="479" type="line"/>
      <point x="110" y="479" type="line"/>
      <point x="212" y="315" type="line"/>
      <point x="314" y="479" type="line"/>
      <point x="397" y="479" type="line"/>
      <point x="254" y="250" type="line"/>
      <point x="410" y="0" type="line"/>
      <point x="327" y="0" type="line"/>
      <point x="212" y="183" type="line"/>
      <point x="97" y="0" type="line"/>
      <point x="15" y="0" type="line"/>
    </contour>
  </outline>
</glyph>
<glyph name="z" format="1">
  <advance width="430"/>
  <unicode hex="007A"/>
  <outline>
    <contour>
      <point x="225" y="581" type="move" name="above"/>
    </contour>
    <contour>
      <point x="219" y="0" type="move" name="below"/>
    </contour>
    <contour>
      <point x="38" y="416" type="line"/>
      <point x="38" y="479" type="line"/>
      <point x="392" y="479" type="line"/>
      <point x="392" y="416" type="line"/>
      <point x="122" y="63" type="line"/>
      <point x="392" y="63" type="line"/>
      <point x="392" y="0" type="line"/>
      <point x="38" y="0" type="line"/>
      <point x="38" y="63" type="line"/>
      <point x="308" y="416" type="line"/>
    </contour>
  </outline>
</glyph>
<glyph name="cent" format="1">
  <advance width="500"/>
  <unicode hex="00A2"/>
  <outline>
    <contour>
      <point x="241" y="698" type="line"/>
      <point x="283" y="698" type="line"/>
      <point x="283" y="597" type="line"/>
      <point x="330" y="594"/>
      <point x="420" y="542"/>
      <point x="453" y="500" type="qcurve"/>
      <point x="401" y="460" type="line"/>
      <point x="352" y="528"/>
      <point x="283" y="534" type="qcurve"/>
      <point x="283" y="148" type="line"/>
      <point x="331" y="149"/>
      <point x="384" y="181"/>
      <point x="410" y="215" type="qcurve"/>
      <point x="464" y="177" type="line"/>
      <point x="428" y="133"/>
      <point x="345" y="86"/>
      <point x="283" y="85" type="qcurve"/>
      <point x="283" y="0" type="line"/>
      <point x="241" y="0" type="line"/>
      <point x="241" y="88" type="line"/>
      <point x="159" y="102"/>
      <point x="34" y="248"/>
      <point x="34" y="341" type="qcurve" smooth="yes"/>
      <point x="34" y="435"/>
      <point x="159" y="582"/>
      <point x="241" y="595" type="qcurve"/>
    </contour>
    <contour>
      <point x="241" y="152" type="qcurve"/>
      <point x="241" y="530" type="line"/>
      <point x="183" y="517"/>
      <point x="103" y="410"/>
      <point x="103" y="272"/>
      <point x="183" y="165"/>
    </contour>
  </outline>
</glyph>
<glyph name="sterling" format="1">
  <advance width="481"/>
  <unicode hex="00A3"/>
  <outline>
    <contour>
      <point x="426" y="564" type="qcurve"/>
      <point x="350" y="564" type="line"/>
      <point x="350" y="601"/>
      <point x="287" y="651"/>
      <point x="248" y="651" type="qcurve" smooth="yes"/>
      <point x="208" y="651"/>
      <point x="145" y="603"/>
      <point x="145" y="564" type="qcurve" smooth="yes"/>
      <point x="145" y="539"/>
      <point x="203" y="421"/>
      <point x="211" y="388" type="qcurve"/>
      <point x="300" y="388" type="line"/>
      <point x="300" y="332" type="line"/>
      <point x="218" y="332" type="line"/>
      <point x="218" y="267"/>
      <point x="174" y="133"/>
      <point x="152" y="98" type="qcurve" smooth="yes"/>
      <point x="131" y="63" type="line"/>
      <point x="445" y="63" type="line"/>
      <point x="445" y="0" type="line"/>
      <point x="54" y="0" type="line"/>
      <point x="54" y="63" type="line"/>
      <point x="58" y="67"/>
      <point x="69" y="84"/>
      <point x="100" y="139"/>
      <point x="123" y="198"/>
      <point x="142" y="287"/>
      <point x="142" y="332" type="qcurve"/>
      <point x="61" y="332" type="line"/>
      <point x="61" y="388" type="line"/>
      <point x="130" y="388" type="line"/>
      <point x="124" y="406"/>
      <point x="90" y="481"/>
      <point x="70" y="540"/>
      <point x="70" y="564" type="qcurve" smooth="yes"/>
      <point x="70" y="645"/>
      <point x="170" y="714"/>
      <point x="248" y="714" type="qcurve" smooth="yes"/>
      <point x="319" y="714"/>
      <point x="426" y="625"/>
    </contour>
  </outline>
</glyph>
<glyph name="currency" format="1">
  <advance width="523"/>
  <unicode hex="00A4"/>
  <outline>
    <contour>
      <point x="140" y="251"/>
      <point x="212" y="179"/>
      <point x="314" y="179"/>
      <point x="386" y="251"/>
      <point x="386" y="353"/>
      <point x="314" y="425"/>
      <point x="212" y="425"/>
      <point x="140" y="353"/>
    </contour>
    <contour>
      <point x="372" y="152" type="line"/>
      <point x="325" y="117"/>
      <point x="263" y="117" type="qcurve" smooth="yes"/>
      <point x="200" y="117"/>
      <point x="152" y="154" type="qcurve"/>
      <point x="91" y="93" type="line"/>
      <point x="52" y="132" type="line"/>
      <point x="113" y="194" type="line"/>
      <point x="78" y="241"/>
      <point x="78" y="302" type="qcurve" smooth="yes"/>
      <point x="78" y="364"/>
      <point x="113" y="411" type="qcurve"/>
      <point x="52" y="472" type="line"/>
      <point x="91" y="511" type="line"/>
      <point x="153" y="451" type="line"/>
      <point x="199" y="487"/>
      <point x="263" y="487" type="qcurve" smooth="yes"/>
      <point x="326" y="487"/>
      <point x="372" y="453" type="qcurve"/>
      <point x="431" y="511" type="line"/>
      <point x="470" y="472" type="line"/>
      <point x="412" y="413" type="line"/>
      <point x="447" y="366"/>
      <point x="447" y="238"/>
      <point x="412" y="191" type="qcurve"/>
      <point x="470" y="132" type="line"/>
      <point x="431" y="93" type="line"/>
    </contour>
  </outline>
</glyph>
<glyph name="periodcentered" format="1">
  <advance width="225"/>
  <unicode hex="00B7"/>
  <outline>
    <contour>
      <point x="57" y="283"/>
      <point x="90" y="315"/>
      <point x="136" y="315"/>
      <point x="168" y="283"/>
      <point x="168" y="237"/>
      <point x="136" y="204"/>
      <point x="90" y="204"/>
      <point x="57" y="237"/>
    </contour>
  </outline>
</glyph>
<glyph name="Ccedilla" format="1">
  <advance width="586"/>
  <unicode hex="00C7"/>
  <outline>
    <contour>
      <point x="302.119" y="-14.745" type="line"/>
      <point x="201.086" y="-4.3846"/>
      <point x="127.5" y="91.5" type="qcurve" smooth="yes"/>
      <point x="45" y="199"/>
      <point x="45" y="348" type="qcurve" smooth="yes"/>
      <point x="45" y="497"/>
      <point x="127.5" y="605.5" type="qcurve" smooth="yes"/>
      <point x="210" y="714"/>
      <point x="327" y="714" type="qcurve" smooth="yes"/>
      <point x="454" y="714"/>
      <point x="547" y="570" type="qcurve"/>
      <point x="486" y="527" type="line"/>
      <point x="415" y="644"/>
      <point x="327" y="644" type="qcurve" smooth="yes"/>
      <point x="238" y="644"/>
      <point x="180.5" y="556" type="qcurve" smooth="yes"/>
      <point x="123" y="468"/>
      <point x="123" y="348" type="qcurve" smooth="yes"/>
      <point x="123" y="228"/>
      <point x="180" y="141" type="qcurve" smooth="yes"/>
      <point x="237" y="54"/>
      <point x="327" y="54" type="qcurve" smooth="yes"/>
      <point x="423" y="54"/>
      <point x="493" y="183" type="qcurve"/>
      <point x="559" y="147" type="line"/>
      <point x="474.348" y="0.209426"/>
      <point x="354.012" y="-14.3881" type="qcurve"/>
      <point x="327" y="-70" type="line"/>
      <point x="382" y="-70"/>
      <point x="409.5" y="-88" type="qcurve" smooth="yes"/>
      <point x="437" y="-106"/>
      <point x="437" y="-128" type="qcurve" smooth="yes"/>
      <point x="437" y="-205"/>
      <point x="227" y="-205" type="qcurve"/>
      <point x="227" y="-177" type="line"/>
      <point x="278" y="-177"/>
      <point x="324" y="-165.5" type="qcurve" smooth="yes"/>
      <point x="370" y="-154"/>
      <point x="370" y="-134" type="qcurve" smooth="yes"/>
      <point x="370" y="-124"/>
      <point x="363" y="-118" type="qcurve" smooth="yes"/>
      <point x="356" y="-112"/>
      <point x="331.5" y="-108.5" type="qcurve" smooth="yes"/>
      <point x="307" y="-105"/>
      <point x="260" y="-105" type="qcurve"/>
    </contour>
  </outline>
</glyph>
<glyph name="multiply" format="1">
  <advance width="440"/>
  <unicode hex="00D7"/>
  <outline>
    <contour>
      <point x="180" y="246" type="line"/>
      <point x="53" y="373" type="line"/>
      <point x="93" y="413" type="line"/>
      <point x="220" y="286" type="line"/>
      <point x="347" y="413" type="line"/>
      <point x="387" y="373" type="line"/>
      <point x="260" y="246" type="line"/>
      <point x="387" y="119" type="line"/>
      <point x="347" y="79" type="line"/>
      <point x="220" y="206" type="line"/>
      <point x="93" y="79" type="line"/>
      <point x="53" y="119" type="line"/>
    </contour>
  </outline>
</glyph>
<glyph name="Thorn" format="1">
  <advance width="525"/>
  <unicode hex="00DE"/>
  <outline>
    <contour>
      <point x="158" y="0" type="line"/>
      <point x="81" y="0" type="line"/>
      <point x="81" y="698" type="line"/>
      <point x="158" y="698" type="line"/>
      <point x="158" y="525" type="line"/>
      <point x="293" y="525" type="line" smooth="yes"/>
      <point x="381" y="525"/>
      <point x="507" y="428"/>
      <point x="507" y="272"/>
      <point x="382" y="175"/>
      <point x="295" y="175" type="qcurve" smooth="yes"/>
      <point x="158" y="175" type="line"/>
    </contour>
    <contour>
      <point x="158" y="461" type="line"/>
      <point x="158" y="238" type="line"/>
      <point x="293" y="238" type="line" smooth="yes"/>
      <point x="349" y="238"/>
      <point x="423" y="300"/>
      <point x="423" y="399"/>
      <point x="349" y="461"/>
      <point x="293" y="461" type="qcurve" smooth="yes"/>
    </contour>
  </outline>
</glyph>
<glyph name="Aogonek" format="1">
  <advance width="589"/>
  <unicode hex="0104"/>
  <outline>
    <contour>
      <point x="295" y="743" type="move" name="above"/>
    </contour>
    <contour>
      <point x="457" y="-84" type="qcurve" smooth="yes"/>
      <point x="457" y="-154"/>
      <point x="563" y="-154" type="qcurve" smooth="yes"/>
      <point x="590" y="-154"/>
      <point x="618" y="-147" type="qcurve"/>
      <point x="625" y="-174" type="line"/>
      <point x="565" y="-190"/>
      <point x="519" y="-190" type="qcurve" smooth="yes"/>
      <point x="390" y="-190"/>
      <point x="390" y="-93" type="qcurve" smooth="yes"/>
      <point x="390" y="-3.4653"/>
      <point x="500.42" y="20.6356" type="qcurve"/>
      <point x="436" y="196" type="line"/>
      <point x="154" y="196" type="line"/>
      <point x="83" y="0" type="line"/>
      <point x="1" y="0" type="line"/>
      <point x="254" y="696" type="line"/>
      <point x="254" y="698" type="line"/>
      <point x="337" y="698" type="line"/>
      <point x="336" y="696" type="line"/>
      <point x="590" y="0" type="line"/>
      <point x="525" y="0" type="line"/>
      <point x="483" y="-13"/>
      <point x="470" y="-30" type="qcurve" smooth="yes"/>
      <point x="457" y="-47"/>
    </contour>
    <contour>
      <point x="295" y="584" type="line"/>
      <point x="177" y="259" type="line"/>
      <point x="414" y="259" type="line"/>
    </contour>
  </outline>
</glyph>
<glyph name="aogonek" format="1">
  <advance width="574"/>
  <unicode hex="0105"/>
  <outline>
    <contour>
      <point x="282" y="581" type="move" name="above"/>
    </contour>
    <contour>
      <point x="442" y="-84" type="qcurve" smooth="yes"/>
      <point x="442" y="-154"/>
      <point x="548" y="-154" type="qcurve" smooth="yes"/>
      <point x="575" y="-154"/>
      <point x="603" y="-147" type="qcurve"/>
      <point x="610" y="-174" type="line"/>
      <point x="550" y="-190"/>
      <point x="504" y="-190" type="qcurve" smooth="yes"/>
      <point x="375" y="-190"/>
      <point x="375" y="-93" type="qcurve" smooth="yes"/>
      <point x="375" y="-24.305"/>
      <point x="440" y="5.87144" type="qcurve"/>
      <point x="440" y="73" type="line"/>
      <point x="379" y="-16"/>
      <point x="279" y="-16" type="qcurve" smooth="yes"/>
      <point x="179" y="-16"/>
      <point x="107" y="60" type="qcurve" smooth="yes"/>
      <point x="35" y="136"/>
      <point x="35" y="239.5" type="qcurve" smooth="yes"/>
      <point x="35" y="343"/>
      <point x="106" y="419.5" type="qcurve" smooth="yes"/>
      <point x="177" y="496"/>
      <point x="276.5" y="496" type="qcurve" smooth="yes"/>
      <point x="376" y="496"/>
      <point x="440" y="404" type="qcurve"/>
      <point x="440" y="479" type="line"/>
      <point x="510" y="479" type="line"/>
      <point x="510" y="25" type="line"/>
      <point x="510" y="0" type="line"/>
      <point x="468" y="-13"/>
      <point x="455" y="-30" type="qcurve" smooth="yes"/>
      <point x="442" y="-47"/>
    </contour>
    <contour>
      <point x="104" y="240" type="qcurve" smooth="yes"/>
      <point x="104" y="165"/>
      <point x="153.5" y="106" type="qcurve" smooth="yes"/>
      <point x="203" y="47"/>
      <point x="272" y="47" type="qcurve" smooth="yes"/>
      <point x="341" y="47"/>
      <point x="390.5" y="106" type="qcurve" smooth="yes"/>
      <point x="440" y="165"/>
      <point x="440" y="240" type="qcurve" smooth="yes"/>
      <point x="440" y="315"/>
      <point x="390.5" y="373.5" type="qcurve" smooth="yes"/>
      <point x="341" y="432"/>
      <point x="272" y="432" type="qcurve" smooth="yes"/>
      <point x="203" y="432"/>
      <point x="153.5" y="373.5" type="qcurve" smooth="yes"/>
      <point x="104" y="315"/>
    </contour>
  </outline>
</glyph>
<glyph name="dcroat" format="1">
  <advance width="574"/>
  <unicode hex="0111"/>
  <outline>
    <contour>
      <point x="296" y="581" type="line"/>
      <point x="296" y="645" type="line"/>
      <point x="440" y="645" type="line"/>
      <point x="440" y="743" type="line"/>
      <point x="510" y="743" type="line"/>
      <point x="510" y="645" type="line"/>
      <point x="564" y="645" type="line"/>
      <point x="564" y="581" type="line"/>
      <point x="510" y="581" type="line"/>
      <point x="510" y="0" type="line"/>
      <point x="440" y="0" type="line"/>
      <point x="440" y="73" type="line"/>
      <point x="379" y="-16"/>
      <point x="279" y="-16" type="qcurve" smooth="yes"/>
      <point x="179" y="-16"/>
      <point x="107" y="60" type="qcurve" smooth="yes"/>
      <point x="35" y="136"/>
      <point x="35" y="239.5" type="qcurve" smooth="yes"/>
      <point x="35" y="343"/>
      <point x="106" y="419.5" type="qcurve" smooth="yes"/>
      <point x="177" y="496"/>
      <point x="276.5" y="496" type="qcurve" smooth="yes"/>
      <point x="376" y="496"/>
      <point x="440" y="404" type="qcurve"/>
      <point x="440" y="581" type="line"/>
    </contour>
    <contour>
      <point x="104" y="240" type="qcurve" smooth="yes"/>
      <point x="104" y="165"/>
      <point x="153.5" y="106" type="qcurve" smooth="yes"/>
      <point x="203" y="47"/>
      <point x="272" y="47" type="qcurve" smooth="yes"/>
      <point x="341" y="47"/>
      <point x="390.5" y="106" type="qcurve" smooth="yes"/>
      <point x="440" y="165"/>
      <point x="440" y="240" type="qcurve" smooth="yes"/>
      <point x="440" y="315"/>
      <point x="390.5" y="373.5" type="qcurve" smooth="yes"/>
      <point x="341" y="432"/>
      <point x="272" y="432" type="qcurve" smooth="yes"/>
      <point x="203" y="432"/>
      <point x="153.5" y="373.5" type="qcurve" smooth="yes"/>
      <point x="104" y="315"/>
    </contour>
  </outline>
</glyph>
<glyph name="Iogonek" format="1">
  <advance width="259"/>
  <unicode hex="012E"/>
  <outline>
    <contour>
      <point x="130" y="743" type="move" name="above"/>
    </contour>
    <contour>
      <point x="137" y="-84" type="qcurve" smooth="yes"/>
      <point x="137" y="-154"/>
      <point x="243" y="-154" type="qcurve" smooth="yes"/>
      <point x="270" y="-154"/>
      <point x="298" y="-147" type="qcurve"/>
      <point x="305" y="-174" type="line"/>
      <point x="245" y="-190"/>
      <point x="199" y="-190" type="qcurve" smooth="yes"/>
      <point x="70" y="-190"/>
      <point x="70" y="-93" type="qcurve" smooth="yes"/>
      <point x="70" y="-30.6178"/>
      <point x="123.603" y="0" type="qcurve"/>
      <point x="54" y="0" type="line"/>
      <point x="54" y="68" type="line"/>
      <point x="91" y="68" type="line"/>
      <point x="91" y="631" type="line"/>
      <point x="54" y="631" type="line"/>
      <point x="54" y="698" type="line"/>
      <point x="205" y="698" type="line"/>
      <point x="205" y="631" type="line"/>
      <point x="168" y="631" type="line"/>
      <point x="168" y="68" type="line"/>
      <point x="205" y="68" type="line"/>
      <point x="205" y="25" type="line"/>
      <point x="205" y="0" type="line"/>
      <point x="163" y="-13"/>
      <point x="150" y="-30" type="qcurve" smooth="yes"/>
      <point x="137" y="-47"/>
    </contour>
  </outline>
</glyph>
<glyph name="iogonek" format="1">
  <advance width="198"/>
  <unicode hex="012F"/>
  <outline>
    <contour>
      <point x="66" y="-84" type="qcurve" smooth="yes"/>
      <point x="66" y="-154"/>
      <point x="172" y="-154" type="qcurve" smooth="yes"/>
      <point x="199" y="-154"/>
      <point x="227" y="-147" type="qcurve"/>
      <point x="234" y="-174" type="line"/>
      <point x="174" y="-190"/>
      <point x="128" y="-190" type="qcurve" smooth="yes"/>
      <point x="-1" y="-190"/>
      <point x="-1" y="-93" type="qcurve" smooth="yes"/>
      <point x="-1" y="-23.7786"/>
      <point x="65" y="6.33166" type="qcurve"/>
      <point x="65" y="479" type="line"/>
      <point x="134" y="479" type="line"/>
      <point x="134" y="25" type="line"/>
      <point x="134" y="0" type="line"/>
      <point x="92" y="-13"/>
      <point x="79" y="-30" type="qcurve" smooth="yes"/>
      <point x="66" y="-47"/>
    </contour>
    <contour>
      <point x="44" y="628" type="qcurve" smooth="yes"/>
      <point x="44" y="651"/>
      <point x="60" y="667" type="qcurve" smooth="yes"/>
      <point x="76" y="683"/>
      <point x="99" y="683" type="qcurve" smooth="yes"/>
      <point x="122" y="683"/>
      <point x="138.5" y="667" type="qcurve" smooth="yes"/>
      <point x="155" y="651"/>
      <point x="155" y="628" type="qcurve" smooth="yes"/>
      <point x="155" y="605"/>
      <point x="138.5" y="588.5" type="qcurve" smooth="yes"/>
      <point x="122" y="572"/>
      <point x="99" y="572" type="qcurve" smooth="yes"/>
      <point x="76" y="572"/>
      <point x="60" y="588.5" type="qcurve" smooth="yes"/>
      <point x="44" y="605"/>
    </contour>
  </outline>
</glyph>
<glyph name="Eng" format="1">
  <advance width="635"/>
  <unicode hex="014A"/>
  <outline>
    <contour>
      <point x="163" y="644" type="line"/>
      <point x="237" y="714"/>
      <point x="332" y="714" type="qcurve" smooth="yes"/>
      <point x="456" y="714"/>
      <point x="582" y="548"/>
      <point x="582" y="408" type="qcurve" smooth="yes"/>
      <point x="582" y="312" type="line" smooth="yes"/>
      <point x="582" y="124"/>
      <point x="486" y="44" type="qcurve" smooth="yes"/>
      <point x="434" y="0"/>
      <point x="358" y="0" type="qcurve" smooth="yes"/>
      <point x="330" y="0" type="line"/>
      <point x="330" y="55" type="line"/>
      <point x="358" y="55" type="line" smooth="yes"/>
      <point x="396" y="55"/>
      <point x="453" y="101"/>
      <point x="469" y="139" type="qcurve" smooth="yes"/>
      <point x="501" y="214"/>
      <point x="501" y="312" type="qcurve" smooth="yes"/>
      <point x="501" y="408" type="line" smooth="yes"/>
      <point x="501" y="513"/>
      <point x="419" y="644"/>
      <point x="332" y="644" type="qcurve" smooth="yes"/>
      <point x="219" y="644"/>
      <point x="163" y="547" type="qcurve"/>
      <point x="163" y="0" type="line"/>
      <point x="81" y="0" type="line"/>
      <point x="81" y="698" type="line"/>
      <point x="163" y="698" type="line"/>
    </contour>
  </outline>
</glyph>
<glyph name="scedilla" format="1">
  <advance width="475"/>
  <unicode hex="015F"/>
  <outline>
    <contour>
      <point x="246" y="206" type="qcurve" smooth="yes"/>
      <point x="243" y="207"/>
      <point x="223.5" y="210.5" type="qcurve" smooth="yes"/>
      <point x="204" y="214"/>
      <point x="197.5" y="215.5" type="qcurve" smooth="yes"/>
      <point x="191" y="217"/>
      <point x="171.5" y="221.5" type="qcurve" smooth="yes"/>
      <point x="152" y="226"/>
      <point x="144" y="229.5" type="qcurve" smooth="yes"/>
      <point x="136" y="233"/>
      <point x="119.5" y="240" type="qcurve" smooth="yes"/>
      <point x="103" y="247"/>
      <point x="95" y="253.5" type="qcurve" smooth="yes"/>
      <point x="87" y="260"/>
      <point x="75.5" y="269.5" type="qcurve" smooth="yes"/>
      <point x="64" y="279"/>
      <point x="58.5" y="290" type="qcurve" smooth="yes"/>
      <point x="53" y="301"/>
      <point x="49" y="315" type="qcurve" smooth="yes"/>
      <point x="45" y="329"/>
      <point x="45" y="345" type="qcurve" smooth="yes"/>
      <point x="45" y="415"/>
      <point x="101.5" y="455.5" type="qcurve" smooth="yes"/>
      <point x="158" y="496"/>
      <point x="248" y="496" type="qcurve" smooth="yes"/>
      <point x="380" y="496"/>
      <point x="428" y="383" type="qcurve"/>
      <point x="366" y="352" type="line"/>
      <point x="334" y="432"/>
      <point x="248" y="432" type="qcurve" smooth="yes"/>
      <point x="184" y="432"/>
      <point x="150" y="408.5" type="qcurve" smooth="yes"/>
      <point x="116" y="385"/>
      <point x="116" y="345" type="qcurve" smooth="yes"/>
      <point x="116" y="336"/>
      <point x="118.5" y="329" type="qcurve" smooth="yes"/>
      <point x="121" y="322"/>
      <point x="126.5" y="316" type="qcurve" smooth="yes"/>
      <point x="132" y="310"/>
      <point x="138" y="305.5" type="qcurve" smooth="yes"/>
      <point x="144" y="301"/>
      <point x="153.5" y="297.5" type="qcurve" smooth="yes"/>
      <point x="163" y="294"/>
      <point x="170.5" y="291.5" type="qcurve" smooth="yes"/>
      <point x="178" y="289"/>
      <point x="190.5" y="286.5" type="qcurve" smooth="yes"/>
      <point x="203" y="284"/>
      <point x="210.5" y="282.5" type="qcurve" smooth="yes"/>
      <point x="218" y="281"/>
      <point x="232" y="279" type="qcurve" smooth="yes"/>
      <point x="246" y="277"/>
      <point x="252" y="276" type="qcurve" smooth="yes"/>
      <point x="290" y="270"/>
      <point x="318" y="262" type="qcurve" smooth="yes"/>
      <point x="346" y="254"/>
      <point x="377.5" y="238.5" type="qcurve" smooth="yes"/>
      <point x="409" y="223"/>
      <point x="426" y="197" type="qcurve" smooth="yes"/>
      <point x="443" y="171"/>
      <point x="443" y="135" type="qcurve" smooth="yes"/>
      <point x="443" y="66"/>
      <point x="380.5" y="25" type="qcurve" smooth="yes"/>
      <point x="327.279" y="-9.91289"/>
      <point x="252.668" y="-15.0963" type="qcurve"/>
      <point x="226" y="-70" type="line"/>
      <point x="281" y="-70"/>
      <point x="308.5" y="-88" type="qcurve" smooth="yes"/>
      <point x="336" y="-106"/>
      <point x="336" y="-128" type="qcurve" smooth="yes"/>
      <point x="336" y="-205"/>
      <point x="126" y="-205" type="qcurve"/>
      <point x="126" y="-177" type="line"/>
      <point x="177" y="-177"/>
      <point x="223" y="-165.5" type="qcurve" smooth="yes"/>
      <point x="269" y="-154"/>
      <point x="269" y="-134" type="qcurve" smooth="yes"/>
      <point x="269" y="-124"/>
      <point x="262" y="-118" type="qcurve" smooth="yes"/>
      <point x="255" y="-112"/>
      <point x="230.5" y="-108.5" type="qcurve" smooth="yes"/>
      <point x="206" y="-105"/>
      <point x="159" y="-105" type="qcurve"/>
      <point x="201.019" y="-14.9592" type="line"/>
      <point x="148.233" y="-10.4589"/>
      <point x="106" y="13.5" type="qcurve" smooth="yes"/>
      <point x="54" y="43"/>
      <point x="31" y="97" type="qcurve"/>
      <point x="93" y="128" type="line"/>
      <point x="108" y="92"/>
      <point x="143" y="70" type="qcurve" smooth="yes"/>
      <point x="178" y="48"/>
      <point x="226" y="48" type="qcurve" smooth="yes"/>
      <point x="291" y="48"/>
      <point x="332.5" y="73" type="qcurve" smooth="yes"/>
      <point x="374" y="98"/>
      <point x="374" y="135" type="qcurve" smooth="yes"/>
      <point x="374" y="146"/>
      <point x="370.5" y="155.5" type="qcurve" smooth="yes"/>
      <point x="367" y="165"/>
      <point x="357.5" y="171.5" type="qcurve" smooth="yes"/>
      <point x="348" y="178"/>
      <point x="341" y="182.5" type="qcurve" smooth="yes"/>
      <point x="334" y="187"/>
      <point x="318.5" y="191" type="qcurve" smooth="yes"/>
      <point x="303" y="195"/>
      <point x="295.5" y="197" type="qcurve" smooth="yes"/>
      <point x="288" y="199"/>
      <point x="269.5" y="202" type="qcurve" smooth="yes"/>
      <point x="251" y="205"/>
    </contour>
  </outline>
</glyph>
<glyph name="uni018A" format="1">
  <advance width="750"/>
  <unicode hex="018A"/>
  <outline>
    <contour>
      <point x="284" y="628" type="line"/>
      <point x="284" y="70" type="line"/>
      <point x="337" y="70" type="line" smooth="yes"/>
      <point x="474" y="70"/>
      <point x="549" y="138.5" type="qcurve" smooth="yes"/>
      <point x="624" y="207"/>
      <point x="624" y="348" type="qcurve" smooth="yes"/>
      <point x="624" y="490"/>
      <point x="549" y="559" type="qcurve" smooth="yes"/>
      <point x="474" y="628"/>
      <point x="337" y="628" type="qcurve" smooth="yes"/>
    </contour>
    <contour>
      <point x="262" y="698" type="line"/>
      <point x="359" y="698" type="line" smooth="yes"/>
      <point x="427" y="698"/>
      <point x="487.5" y="677" type="qcurve" smooth="yes"/>
      <point x="548" y="656"/>
      <point x="597.5" y="615" type="qcurve" smooth="yes"/>
      <point x="647" y="574"/>
      <point x="676" y="505" type="qcurve" smooth="yes"/>
      <point x="705" y="436"/>
      <point x="705" y="348" type="qcurve" smooth="yes"/>
      <point x="705" y="260"/>
      <point x="676" y="191.5" type="qcurve" smooth="yes"/>
      <point x="647" y="123"/>
      <point x="597.5" y="82" type="qcurve" smooth="yes"/>
      <point x="548" y="41"/>
      <point x="487.5" y="20.5" type="qcurve" smooth="yes"/>
      <point x="427" y="0"/>
      <point x="359" y="0" type="qcurve" smooth="yes"/>
      <point x="207" y="0" type="line"/>
      <point x="207" y="629" type="line"/>
      <point x="180" y="629" type="line" smooth="yes"/>
      <point x="143" y="629"/>
      <point x="117.5" y="605.5" type="qcurve" smooth="yes"/>
      <point x="92" y="582"/>
      <point x="92" y="547" type="qcurve" smooth="yes"/>
      <point x="92" y="436" type="line"/>
      <point x="28" y="436" type="line"/>
      <point x="28" y="547" type="line" smooth="yes"/>
      <point x="28" y="610"/>
      <point x="72" y="654" type="qcurve" smooth="yes"/>
      <point x="116" y="698"/>
      <point x="180" y="698" type="qcurve" smooth="yes"/>
      <point x="207" y="698" type="line"/>
    </contour>
  </outline>
</glyph>
<glyph name="uni019F" format="1">
  <advance width="686"/>
  <unicode hex="019F"/>
  <outline>
    <contour>
      <point x="343" y="743" type="move" name="above"/>
    </contour>
    <component base="uni04E8"/>
  </outline>
</glyph>
<glyph name="uni01B4" format="1">
  <advance width="636"/>
  <unicode hex="01B4"/>
  <outline>
    <contour>
      <point x="556" y="375" type="qcurve" smooth="yes"/>
      <point x="556" y="399"/>
      <point x="515" y="432"/>
      <point x="492" y="432" type="qcurve" smooth="yes"/>
      <point x="466" y="432"/>
      <point x="429" y="392"/>
      <point x="420" y="367" type="qcurve"/>
      <point x="188" y="-205" type="line"/>
      <point x="114" y="-205" type="line"/>
      <point x="196" y="-2" type="line"/>
      <point x="1" y="479" type="line"/>
      <point x="77" y="479" type="line"/>
      <point x="233" y="90" type="line"/>
      <point x="354" y="390" type="line" smooth="yes"/>
      <point x="375" y="441"/>
      <point x="438" y="496"/>
      <point x="496" y="496" type="qcurve" smooth="yes"/>
      <point x="550" y="496"/>
      <point x="624" y="429"/>
      <point x="624" y="375" type="qcurve" smooth="yes"/>
      <point x="624" y="334"/>
      <point x="588" y="289" type="qcurve"/>
      <point x="531" y="318" type="line"/>
      <point x="556" y="352"/>
    </contour>
  </outline>
</glyph>
<glyph name="uni01EA" format="1">
  <advance width="690"/>
  <unicode hex="01EA"/>
  <outline>
    <contour>
      <point x="359" y="-84" type="qcurve" smooth="yes"/>
      <point x="359" y="-154"/>
      <point x="465" y="-154" type="qcurve" smooth="yes"/>
      <point x="492" y="-154"/>
      <point x="520" y="-147" type="qcurve"/>
      <point x="527" y="-174" type="line"/>
      <point x="467" y="-190"/>
      <point x="421" y="-190" type="qcurve" smooth="yes"/>
      <point x="292" y="-190"/>
      <point x="292" y="-93" type="qcurve" smooth="yes"/>
      <point x="292" y="-43"/>
      <point x="326" y="-15" type="qcurve"/>
      <point x="214" y="-5"/>
      <point x="45" y="209"/>
      <point x="45" y="348" type="qcurve" smooth="yes"/>
      <point x="45" y="495"/>
      <point x="226" y="714"/>
      <point x="464" y="714"/>
      <point x="645" y="495"/>
      <point x="645" y="348" type="qcurve" smooth="yes"/>
      <point x="645" y="221"/>
      <point x="504" y="18"/>
      <point x="403" y="-9" type="qcurve"/>
      <point x="376" y="-21"/>
      <point x="359" y="-52"/>
    </contour>
    <contour>
      <point x="126" y="348" type="qcurve" smooth="yes"/>
      <point x="126" y="231"/>
      <point x="254" y="54"/>
      <point x="436" y="54"/>
      <point x="564" y="231"/>
      <point x="564" y="348" type="qcurve" smooth="yes"/>
      <point x="564" y="466"/>
      <point x="436" y="644"/>
      <point x="254" y="644"/>
      <point x="126" y="466"/>
    </contour>
  </outline>
</glyph>
<glyph name="uni0223" format="1">
  <advance width="532"/>
  <unicode hex="0223"/>
  <outline>
    <contour>
      <point x="266" y="698" type="move" name="above"/>
    </contour>
    <contour>
      <point x="266" y="401" type="line"/>
      <point x="254" y="397" type="line"/>
      <point x="181" y="370"/>
      <point x="113" y="272"/>
      <point x="113" y="215" type="qcurve" smooth="yes"/>
      <point x="113" y="137"/>
      <point x="200" y="54"/>
      <point x="332" y="54"/>
      <point x="420" y="137"/>
      <point x="420" y="215" type="qcurve" smooth="yes"/>
      <point x="420" y="272"/>
      <point x="352" y="370"/>
      <point x="279" y="397" type="qcurve"/>
    </contour>
    <contour>
      <point x="180" y="446" type="qcurve"/>
      <point x="55" y="532"/>
      <point x="55" y="668" type="qcurve"/>
      <point x="133" y="668" type="line"/>
      <point x="133" y="560"/>
      <point x="266" y="488" type="qcurve"/>
      <point x="399" y="560"/>
      <point x="399" y="668" type="qcurve"/>
      <point x="477" y="668" type="line"/>
      <point x="477" y="532"/>
      <point x="352" y="446" type="qcurve"/>
      <point x="422" y="408"/>
      <point x="498" y="302"/>
      <point x="498" y="215" type="qcurve" smooth="yes"/>
      <point x="498" y="103"/>
      <point x="366" y="-16"/>
      <point x="166" y="-16"/>
      <point x="35" y="103"/>
      <point x="35" y="215" type="qcurve" smooth="yes"/>
      <point x="35" y="302"/>
      <point x="110" y="408"/>
    </contour>
  </outline>
</glyph>
<glyph name="uni0228" format="1">
  <advance width="515"/>
  <unicode hex="0228"/>
  <outline>
    <contour>
      <point x="81" y="0" type="line"/>
      <point x="81" y="698" type="line"/>
      <point x="472" y="698" type="line"/>
      <point x="472" y="634" type="line"/>
      <point x="158" y="634" type="line"/>
      <point x="158" y="411" type="line"/>
      <point x="403" y="411" type="line"/>
      <point x="403" y="348" type="line"/>
      <point x="158" y="348" type="line"/>
      <point x="158" y="63" type="line"/>
      <point x="475" y="63" type="line"/>
      <point x="475" y="0" type="line"/>
      <point x="304" y="0" type="line"/>
      <point x="270" y="-70" type="line"/>
      <point x="325" y="-70"/>
      <point x="380" y="-106"/>
      <point x="380" y="-128" type="qcurve" smooth="yes"/>
      <point x="380" y="-205"/>
      <point x="170" y="-205" type="qcurve"/>
      <point x="170" y="-177" type="line"/>
      <point x="221" y="-177"/>
      <point x="313" y="-154"/>
      <point x="313" y="-134" type="qcurve" smooth="yes"/>
      <point x="313" y="-124"/>
      <point x="299" y="-112"/>
      <point x="250" y="-105"/>
      <point x="203" y="-105" type="qcurve"/>
      <point x="252" y="0" type="line"/>
    </contour>
  </outline>
</glyph>
<glyph name="uni023B" format="1">
  <advance width="586"/>
  <unicode hex="023B"/>
  <outline>
    <contour>
      <point x="470.4" y="748" type="line"/>
      <point x="517.4" y="726" type="line"/>
      <point x="481.738" y="649.524" type="line"/>
      <point x="516.23" y="617.644"/>
      <point x="547" y="570" type="qcurve"/>
      <point x="486" y="527" type="line"/>
      <point x="467.955" y="556.737"/>
      <point x="448.811" y="578.915" type="qcurve"/>
      <point x="221.951" y="92.425" type="line"/>
      <point x="267.188" y="54"/>
      <point x="327" y="54" type="qcurve" smooth="yes"/>
      <point x="423" y="54"/>
      <point x="493" y="183" type="qcurve"/>
      <point x="559" y="147" type="line"/>
      <point x="465" y="-16"/>
      <point x="327" y="-16" type="qcurve" smooth="yes"/>
      <point x="252.374" y="-16"/>
      <point x="191.784" y="27.7337" type="qcurve"/>
      <point x="157.4" y="-46" type="line"/>
      <point x="110.4" y="-24" type="line"/>
      <point x="151.229" y="63.5565" type="line"/>
      <point x="139.028" y="76.4788"/>
      <point x="127.5" y="91.5" type="qcurve" smooth="yes"/>
      <point x="45" y="199"/>
      <point x="45" y="348" type="qcurve" smooth="yes"/>
      <point x="45" y="497"/>
      <point x="127.5" y="605.5" type="qcurve" smooth="yes"/>
      <point x="210" y="714"/>
      <point x="327" y="714" type="qcurve" smooth="yes"/>
      <point x="387.065" y="714"/>
      <point x="439.525" y="681.79" type="qcurve"/>
    </contour>
    <contour>
      <point x="184.343" y="134.566" type="qcurve" smooth="yes"/>
      <point x="408.892" y="616.1" type="line"/>
      <point x="369.973" y="644"/>
      <point x="327" y="644" type="qcurve" smooth="yes"/>
      <point x="238" y="644"/>
      <point x="180.5" y="556" type="qcurve" smooth="yes"/>
      <point x="123" y="468"/>
      <point x="123" y="348" type="qcurve" smooth="yes"/>
      <point x="123" y="228"/>
      <point x="180" y="141" type="qcurve" smooth="yes"/>
      <point x="182.148" y="137.721"/>
    </contour>
  </outline>
</glyph>
<glyph name="uni0249" format="1">
  <advance width="250"/>
  <unicode hex="0249"/>
  <outline>
    <contour>
      <point x="-17" y="-141" type="line"/>
      <point x="11" y="-141" type="line" smooth="yes"/>
      <point x="46" y="-141"/>
      <point x="93" y="-89"/>
      <point x="93" y="-53" type="qcurve" smooth="yes"/>
      <point x="93" y="242" type="line"/>
      <point x="19" y="242" type="line"/>
      <point x="19" y="285" type="line"/>
      <point x="93" y="285" type="line"/>
      <point x="93" y="479" type="line"/>
      <point x="163" y="479" type="line"/>
      <point x="163" y="285" type="line"/>
      <point x="224" y="285" type="line"/>
      <point x="224" y="242" type="line"/>
      <point x="163" y="242" type="line"/>
      <point x="163" y="-53" type="line" smooth="yes"/>
      <point x="163" y="-116"/>
      <point x="74" y="-205"/>
      <point x="11" y="-205" type="qcurve" smooth="yes"/>
      <point x="-17" y="-205" type="line"/>
    </contour>
    <contour>
      <point x="73" y="651"/>
      <point x="105" y="683"/>
      <point x="151" y="683"/>
      <point x="183" y="651"/>
      <point x="183" y="605"/>
      <point x="151" y="572"/>
      <point x="105" y="572"/>
      <point x="73" y="605"/>
    </contour>
  </outline>
</glyph>
<glyph name="uni024B" format="1">
  <advance width="574"/>
  <unicode hex="024B"/>
  <outline>
    <contour>
      <point x="180" y="495"/>
      <point x="380" y="495"/>
      <point x="441" y="406" type="qcurve"/>
      <point x="441" y="479" type="line"/>
      <point x="510" y="479" type="line"/>
      <point x="510" y="-53" type="line" smooth="yes"/>
      <point x="510" y="-88"/>
      <point x="562" y="-135"/>
      <point x="598" y="-135" type="qcurve" smooth="yes"/>
      <point x="626" y="-135" type="line"/>
      <point x="626" y="-205" type="line"/>
      <point x="598" y="-205" type="line" smooth="yes"/>
      <point x="534" y="-205"/>
      <point x="487" y="-160" type="qcurve" smooth="yes"/>
      <point x="440" y="-114"/>
      <point x="440" y="-52" type="qcurve" smooth="yes"/>
      <point x="440" y="74" type="line"/>
      <point x="376" y="-17"/>
      <point x="178" y="-17"/>
      <point x="35" y="136"/>
      <point x="35" y="342"/>
    </contour>
    <contour>
      <point x="105" y="164"/>
      <point x="204" y="47"/>
      <point x="342" y="47"/>
      <point x="436" y="158"/>
      <point x="441" y="224" type="qcurve"/>
      <point x="441" y="253" type="line"/>
      <point x="437" y="320"/>
      <point x="342" y="432"/>
      <point x="204" y="432"/>
      <point x="105" y="314"/>
    </contour>
  </outline>
</glyph>
<glyph name="uni0253" format="1">
  <advance width="574"/>
  <unicode hex="0253"/>
  <outline>
    <contour>
      <point x="134" y="65" type="qcurve"/>
      <point x="134" y="0" type="line"/>
      <point x="65" y="0" type="line"/>
      <point x="65" y="608" type="line" smooth="yes"/>
      <point x="65" y="671"/>
      <point x="152" y="759"/>
      <point x="215" y="759" type="qcurve" smooth="yes"/>
      <point x="287" y="759" type="line"/>
      <point x="287" y="690" type="line"/>
      <point x="215" y="690" type="line" smooth="yes"/>
      <point x="180" y="690"/>
      <point x="134" y="643"/>
      <point x="134" y="608" type="qcurve" smooth="yes"/>
      <point x="134" y="416" type="line"/>
      <point x="207" y="496"/>
      <point x="302" y="496" type="qcurve" smooth="yes"/>
      <point x="393" y="496"/>
      <point x="540" y="343"/>
      <point x="540" y="240" type="qcurve" smooth="yes"/>
      <point x="540" y="136"/>
      <point x="395" y="-16"/>
      <point x="304" y="-16" type="qcurve" smooth="yes"/>
      <point x="209" y="-16"/>
    </contour>
    <contour>
      <point x="134" y="161"/>
      <point x="235" y="47"/>
      <point x="369" y="47"/>
      <point x="470" y="161"/>
      <point x="470" y="319"/>
      <point x="369" y="432"/>
      <point x="235" y="432"/>
      <point x="134" y="319"/>
    </contour>
  </outline>
</glyph>
<glyph name="uni0289" format="1">
  <advance width="574"/>
  <unicode hex="0289"/>
  <outline>
    <contour>
      <point x="284" y="581" type="move" name="above"/>
    </contour>
    <contour>
      <point x="30" y="242" type="line"/>
      <point x="30" y="285" type="line"/>
      <point x="75" y="285" type="line"/>
      <point x="75" y="479" type="line"/>
      <point x="143" y="479" type="line"/>
      <point x="143" y="285" type="line"/>
      <point x="428" y="285" type="line"/>
      <point x="428" y="479" type="line"/>
      <point x="499" y="479" type="line"/>
      <point x="499" y="285" type="line"/>
      <point x="545" y="285" type="line"/>
      <point x="545" y="242" type="line"/>
      <point x="499" y="242" type="line"/>
      <point x="499" y="0" type="line"/>
      <point x="428" y="0" type="line"/>
      <point x="428" y="42" type="line"/>
      <point x="369" y="-17"/>
      <point x="287" y="-17" type="qcurve" smooth="yes"/>
      <point x="195" y="-17"/>
      <point x="75" y="86"/>
      <point x="75" y="176" type="qcurve" smooth="yes"/>
      <point x="75" y="242" type="line"/>
    </contour>
    <contour>
      <point x="428" y="242" type="line"/>
      <point x="143" y="242" type="line"/>
      <point x="143" y="176" type="line" smooth="yes"/>
      <point x="143" y="122"/>
      <point x="223" y="47"/>
      <point x="351" y="47"/>
      <point x="428" y="157"/>
      <point x="428" y="239" type="qcurve" smooth="yes"/>
    </contour>
  </outline>
</glyph>
<glyph name="uni0295" format="1">
  <advance width="498"/>
  <unicode hex="0295"/>
  <outline>
    <contour>
      <point x="328" y="170" type="qcurve" smooth="yes"/>
      <point x="328" y="0" type="line"/>
      <point x="258" y="0" type="line"/>
      <point x="258" y="170" type="line" smooth="yes"/>
      <point x="258" y="211"/>
      <point x="231" y="275"/>
      <point x="191" y="312"/>
      <point x="143" y="356"/>
      <point x="103" y="397"/>
      <point x="76" y="469"/>
      <point x="76" y="516" type="qcurve" smooth="yes"/>
      <point x="76" y="600"/>
      <point x="196" y="714"/>
      <point x="284" y="714" type="qcurve" smooth="yes"/>
      <point x="347" y="714"/>
      <point x="455" y="636"/>
      <point x="478" y="572" type="qcurve"/>
      <point x="414" y="552" type="line"/>
      <point x="399" y="599"/>
      <point x="330" y="650"/>
      <point x="284" y="650" type="qcurve" smooth="yes"/>
      <point x="220" y="650"/>
      <point x="145" y="573"/>
      <point x="145" y="516" type="qcurve" smooth="yes"/>
      <point x="145" y="468"/>
      <point x="183" y="397"/>
      <point x="237" y="352"/>
      <point x="290" y="305"/>
      <point x="328" y="225"/>
    </contour>
  </outline>
</glyph>
<glyph name="uni02B2" format="1">
  <advance width="225"/>
  <unicode hex="02B2"/>
  <outline>
    <contour>
      <point x="86" y="662" type="qcurve" smooth="yes"/>
      <point x="86" y="679"/>
      <point x="112" y="701"/>
      <point x="127" y="701" type="qcurve" smooth="yes"/>
      <point x="145" y="701"/>
      <point x="169" y="677"/>
      <point x="169" y="662" type="qcurve" smooth="yes"/>
      <point x="169" y="645"/>
      <point x="142" y="622"/>
      <point x="127" y="622" type="qcurve" smooth="yes"/>
      <point x="109" y="622"/>
      <point x="86" y="647"/>
    </contour>
    <contour>
      <point x="32" y="279" type="line"/>
      <point x="57" y="279" type="line" smooth="yes"/>
      <point x="76" y="279"/>
      <point x="98" y="300"/>
      <point x="98" y="314" type="qcurve" smooth="yes"/>
      <point x="98" y="581" type="line"/>
      <point x="157" y="581" type="line"/>
      <point x="157" y="314" type="line" smooth="yes"/>
      <point x="157" y="278"/>
      <point x="97" y="230"/>
      <point x="57" y="230" type="qcurve" smooth="yes"/>
      <point x="32" y="230" type="line"/>
    </contour>
  </outline>
</glyph>
<glyph name="uni0312" format="1">
  <advance width="0"/>
  <unicode hex="0312"/>
  <outline>
    <contour>
      <point x="-319" y="581" type="move" name="_above"/>
    </contour>
    <contour>
      <point x="-264" y="605"/>
      <point x="-296" y="573"/>
      <point x="-342" y="573"/>
      <point x="-375" y="605"/>
      <point x="-375" y="628" type="qcurve" smooth="yes"/>
      <point x="-375" y="663"/>
      <point x="-356" y="724"/>
      <point x="-328" y="762"/>
      <point x="-314" y="776" type="qcurve" smooth="yes"/>
      <point x="-302" y="788"/>
      <point x="-292" y="794" type="qcurve" smooth="yes"/>
      <point x="-282" y="800" type="line"/>
      <point x="-265" y="790" type="line"/>
      <point x="-304" y="751"/>
      <point x="-319" y="684" type="qcurve"/>
      <point x="-296" y="684"/>
      <point x="-264" y="651"/>
    </contour>
  </outline>
</glyph>
<glyph name="dotbelowcomb" format="1">
  <advance width="0"/>
  <unicode hex="0323"/>
  <outline>
    <contour>
      <point x="-319" y="0" type="move" name="_below"/>
    </contour>
    <component base="uni0307" yOffset="-760"/>
  </outline>
</glyph>
<glyph name="uni0324" format="1">
  <advance width="0"/>
  <unicode hex="0324"/>
  <outline>
    <contour>
      <point x="-317" y="0" type="move" name="_below"/>
    </contour>
    <component base="uni0308" yOffset="-760"/>
  </outline>
</glyph>
<glyph name="uni0329" format="1">
  <advance width="0"/>
  <unicode hex="0329"/>
  <outline>
    <contour>
      <point x="-319" y="0" type="move" name="_ogonek"/>
    </contour>
    <component base="uni030D" yOffset="-852"/>
  </outline>
</glyph>
<glyph name="uni0342" format="1">
  <advance width="0"/>
  <unicode hex="0342"/>
  <outline>
    <contour>
      <point x="-319" y="581" type="move" name="_above"/>
    </contour>
    <component base="uni0311"/>
  </outline>
</glyph>
<glyph name="uni0345" format="1">
  <advance width="0"/>
  <unicode hex="0345"/>
  <outline>
    <contour>
      <point x="-210" y="-207" type="line"/>
      <point x="-261" y="-207"/>
      <point x="-331" y="-148"/>
      <point x="-331" y="-93" type="qcurve" smooth="yes"/>
      <point x="-331" y="-43" type="line"/>
      <point x="-279" y="-43" type="line"/>
      <point x="-279" y="-93" type="line" smooth="yes"/>
      <point x="-279" y="-155"/>
      <point x="-210" y="-155" type="qcurve"/>
    </contour>
  </outline>
</glyph>
<glyph name="Delta" format="1">
  <advance width="589"/>
  <unicode hex="0394"/>
  <outline>
    <contour>
      <point x="336" y="696" type="line"/>
      <point x="590" y="0" type="line"/>
      <point x="1" y="0" type="line"/>
      <point x="254" y="696" type="line"/>
      <point x="254" y="698" type="line"/>
      <point x="337" y="698" type="line"/>
    </contour>
    <contour>
      <point x="295" y="584" type="line"/>
      <point x="105" y="63" type="line"/>
      <point x="484" y="63" type="line"/>
    </contour>
  </outline>
</glyph>
<glyph name="eta" format="1">
  <advance width="547"/>
  <unicode hex="03B7"/>
  <outline>
    <contour>
      <point x="419" y="-205" type="line"/>
      <point x="419" y="303" type="line" smooth="yes"/>
      <point x="419" y="357"/>
      <point x="340" y="432"/>
      <point x="212" y="432"/>
      <point x="134" y="322"/>
      <point x="134" y="240" type="qcurve" smooth="yes"/>
      <point x="134" y="0" type="line"/>
      <point x="65" y="0" type="line"/>
      <point x="65" y="479" type="line"/>
      <point x="134" y="479" type="line"/>
      <point x="134" y="435" type="line"/>
      <point x="193" y="496"/>
      <point x="276" y="496" type="qcurve" smooth="yes"/>
      <point x="368" y="496"/>
      <point x="488" y="393"/>
      <point x="488" y="303" type="qcurve" smooth="yes"/>
      <point x="488" y="-205" type="line"/>
    </contour>
  </outline>
</glyph>
<glyph name="omega" format="1">
  <advance width="719"/>
  <unicode hex="03C9"/>
  <outline>
    <contour>
      <point x="391" y="370" type="line"/>
      <point x="393" y="215"/>
      <point x="442" y="49"/>
      <point x="503" y="49" type="qcurve" smooth="yes"/>
      <point x="548" y="49"/>
      <point x="610" y="144"/>
      <point x="610" y="254" type="qcurve" smooth="yes"/>
      <point x="610" y="271"/>
      <point x="606" y="305"/>
      <point x="598" y="338"/>
      <point x="590" y="363"/>
      <point x="575" y="394"/>
      <point x="567" y="412"/>
      <point x="548" y="441"/>
      <point x="542" y="450"/>
      <point x="523" y="478"/>
      <point x="522" y="479" type="qcurve"/>
      <point x="601" y="479" type="line"/>
      <point x="679" y="374"/>
      <point x="679" y="252" type="qcurve" smooth="yes"/>
      <point x="679" y="180"/>
      <point x="647" y="71"/>
      <point x="593" y="13"/>
      <point x="535" y="-14"/>
      <point x="503" y="-14" type="qcurve" smooth="yes"/>
      <point x="400" y="-14"/>
      <point x="360" y="102" type="qcurve"/>
      <point x="320" y="-14"/>
      <point x="217" y="-14" type="qcurve" smooth="yes"/>
      <point x="185" y="-14"/>
      <point x="127" y="13"/>
      <point x="73" y="71"/>
      <point x="41" y="180"/>
      <point x="41" y="252" type="qcurve" smooth="yes"/>
      <point x="41" y="374"/>
      <point x="119" y="479" type="qcurve"/>
      <point x="198" y="479" type="line"/>
      <point x="197" y="478"/>
      <point x="178" y="450"/>
      <point x="172" y="441"/>
      <point x="153" y="412"/>
      <point x="145" y="394"/>
      <point x="130" y="363"/>
      <point x="122" y="338"/>
      <point x="114" y="305"/>
      <point x="110" y="271"/>
      <point x="110" y="254" type="qcurve" smooth="yes"/>
      <point x="110" y="144"/>
      <point x="172" y="49"/>
      <point x="217" y="49" type="qcurve" smooth="yes"/>
      <point x="278" y="49"/>
      <point x="327" y="215"/>
      <point x="329" y="370" type="qcurve"/>
    </contour>
  </outline>
</glyph>
<glyph name="afii10051" format="1">
  <advance width="724"/>
  <unicode hex="0402"/>
  <outline>
    <contour>
      <point x="19" y="635" type="line"/>
      <point x="19" y="698" type="line"/>
      <point x="495" y="698" type="line"/>
      <point x="495" y="635" type="line"/>
      <point x="295" y="635" type="line"/>
      <point x="295" y="430" type="line"/>
      <point x="352" y="489"/>
      <point x="454" y="489" type="qcurve" smooth="yes"/>
      <point x="573" y="489"/>
      <point x="688" y="355"/>
      <point x="688" y="209" type="qcurve" smooth="yes"/>
      <point x="688" y="49"/>
      <point x="572" y="-97"/>
      <point x="436" y="-97" type="qcurve"/>
      <point x="436" y="-34" type="line"/>
      <point x="529" y="-34"/>
      <point x="607" y="75"/>
      <point x="607" y="209" type="qcurve" smooth="yes"/>
      <point x="607" y="314"/>
      <point x="541" y="420"/>
      <point x="454" y="420" type="qcurve" smooth="yes"/>
      <point x="295" y="420"/>
      <point x="295" y="183" type="qcurve" smooth="yes"/>
      <point x="295" y="0" type="line"/>
      <point x="219" y="0" type="line"/>
      <point x="219" y="635" type="line"/>
    </contour>
  </outline>
</glyph>
<glyph name="afii10145" format="1">
  <advance width="643"/>
  <unicode hex="040F"/>
  <outline>
    <contour>
      <point x="364" y="0" type="line"/>
      <point x="364" y="-84" type="line"/>
      <point x="287" y="-84" type="line"/>
      <point x="287" y="0" type="line"/>
      <point x="81" y="0" type="line"/>
      <point x="81" y="698" type="line"/>
      <point x="158" y="698" type="line"/>
      <point x="158" y="63" type="line"/>
      <point x="485" y="63" type="line"/>
      <point x="485" y="698" type="line"/>
      <point x="562" y="698" type="line"/>
      <point x="562" y="0" type="line"/>
    </contour>
  </outline>
</glyph>
<glyph name="afii10040" format="1">
  <advance width="695"/>
  <unicode hex="0426"/>
  <outline>
    <contour>
      <point x="655" y="63" type="line"/>
      <point x="655" y="-84" type="line"/>
      <point x="579" y="-84" type="line"/>
      <point x="579" y="0" type="line"/>
      <point x="81" y="0" type="line"/>
      <point x="81" y="698" type="line"/>
      <point x="158" y="698" type="line"/>
      <point x="158" y="63" type="line"/>
      <point x="506" y="63" type="line"/>
      <point x="506" y="698" type="line"/>
      <point x="583" y="698" type="line"/>
      <point x="583" y="63" type="line"/>
    </contour>
  </outline>
</glyph>
<glyph name="afii10043" format="1">
  <advance width="936"/>
  <unicode hex="0429"/>
  <outline>
    <contour>
      <point x="897" y="63" type="line"/>
      <point x="897" y="-84" type="line"/>
      <point x="820" y="-84" type="line"/>
      <point x="820" y="0" type="line"/>
      <point x="81" y="0" type="line"/>
      <point x="81" y="698" type="line"/>
      <point x="158" y="698" type="line"/>
      <point x="158" y="63" type="line"/>
      <point x="414" y="63" type="line"/>
      <point x="414" y="698" type="line"/>
      <point x="490" y="698" type="line"/>
      <point x="490" y="63" type="line"/>
      <point x="746" y="63" type="line"/>
      <point x="746" y="698" type="line"/>
      <point x="823" y="698" type="line"/>
      <point x="823" y="63" type="line"/>
    </contour>
  </outline>
</glyph>
<glyph name="afii10048" format="1">
  <advance width="912"/>
  <unicode hex="042E"/>
  <outline>
    <contour>
      <point x="81" y="0" type="line"/>
      <point x="81" y="698" type="line"/>
      <point x="158" y="698" type="line"/>
      <point x="158" y="381" type="line"/>
      <point x="270" y="381" type="line"/>
      <point x="280" y="517"/>
      <point x="458" y="714"/>
      <point x="569" y="714" type="qcurve" smooth="yes"/>
      <point x="688" y="714"/>
      <point x="869" y="495"/>
      <point x="869" y="201"/>
      <point x="688" y="-16"/>
      <point x="569" y="-16" type="qcurve" smooth="yes"/>
      <point x="458" y="-16"/>
      <point x="280" y="180"/>
      <point x="270" y="317" type="qcurve"/>
      <point x="158" y="317" type="line"/>
      <point x="158" y="0" type="line"/>
    </contour>
    <contour>
      <point x="350" y="348" type="qcurve" smooth="yes"/>
      <point x="350" y="231"/>
      <point x="478" y="54"/>
      <point x="660" y="54"/>
      <point x="788" y="231"/>
      <point x="788" y="348" type="qcurve" smooth="yes"/>
      <point x="788" y="466"/>
      <point x="660" y="644"/>
      <point x="478" y="644"/>
      <point x="350" y="466"/>
    </contour>
  </outline>
</glyph>
<glyph name="afii10069" format="1">
  <advance width="578"/>
  <unicode hex="0434"/>
  <outline>
    <contour>
      <point x="81" y="0" type="line"/>
      <point x="81" y="-84" type="line"/>
      <point x="4" y="-84" type="line"/>
      <point x="4" y="63" type="line"/>
      <point x="77" y="63" type="line"/>
      <point x="126" y="148"/>
      <point x="182" y="338"/>
      <point x="182" y="479" type="qcurve"/>
      <point x="481" y="479" type="line"/>
      <point x="481" y="63" type="line"/>
      <point x="560" y="63" type="line"/>
      <point x="560" y="-84" type="line"/>
      <point x="483" y="-84" type="line"/>
      <point x="483" y="0" type="line"/>
      <point x="481" y="0" type="line"/>
      <point x="412" y="0" type="line"/>
    </contour>
    <contour>
      <point x="160" y="63" type="qcurve"/>
      <point x="412" y="63" type="line"/>
      <point x="412" y="416" type="line"/>
      <point x="252" y="416" type="line"/>
      <point x="252" y="216"/>
    </contour>
  </outline>
</glyph>
<glyph name="afii10077" format="1">
  <advance width="526"/>
  <unicode hex="043B"/>
  <outline>
    <contour>
      <point x="219" y="152" type="line" smooth="yes"/>
      <point x="219" y="88"/>
      <point x="137" y="0"/>
      <point x="75" y="0" type="qcurve" smooth="yes"/>
      <point x="5" y="0" type="line"/>
      <point x="5" y="63" type="line"/>
      <point x="68" y="63" type="line" smooth="yes"/>
      <point x="103" y="63"/>
      <point x="150" y="116"/>
      <point x="150" y="152" type="qcurve" smooth="yes"/>
      <point x="150" y="479" type="line"/>
      <point x="462" y="479" type="line"/>
      <point x="462" y="0" type="line"/>
      <point x="392" y="0" type="line"/>
      <point x="392" y="416" type="line"/>
      <point x="219" y="416" type="line"/>
    </contour>
  </outline>
</glyph>
<glyph name="uni0492" format="1">
  <advance width="480"/>
  <unicode hex="0492"/>
  <outline>
    <contour>
      <point x="16" y="423" type="line"/>
      <point x="16" y="479" type="line"/>
      <point x="84" y="479" type="line"/>
      <point x="84" y="698" type="line"/>
      <point x="475" y="698" type="line"/>
      <point x="475" y="634" type="line"/>
      <point x="161" y="634" type="line"/>
      <point x="161" y="479" type="line"/>
      <point x="301" y="479" type="line"/>
      <point x="301" y="423" type="line"/>
      <point x="161" y="423" type="line"/>
      <point x="161" y="0" type="line"/>
      <point x="84" y="0" type="line"/>
      <point x="84" y="423" type="line"/>
    </contour>
  </outline>
</glyph>
<glyph name="uni049E" format="1">
  <advance width="568"/>
  <unicode hex="049E"/>
  <outline>
    <contour>
      <point x="16" y="524" type="line"/>
      <point x="16" y="581" type="line"/>
      <point x="84" y="581" type="line"/>
      <point x="84" y="698" type="line"/>
      <point x="161" y="698" type="line"/>
      <point x="161" y="581" type="line"/>
      <point x="236" y="581" type="line"/>
      <point x="236" y="524" type="line"/>
      <point x="161" y="524" type="line"/>
      <point x="161" y="387" type="line"/>
      <point x="207" y="397"/>
      <point x="279" y="469"/>
      <point x="327" y="556"/>
      <point x="381" y="641"/>
      <point x="466" y="698"/>
      <point x="524" y="698" type="qcurve"/>
      <point x="524" y="683"/>
      <point x="526" y="640"/>
      <point x="526" y="623" type="qcurve"/>
      <point x="487" y="623"/>
      <point x="422" y="571"/>
      <point x="383" y="504"/>
      <point x="324" y="409"/>
      <point x="296" y="381" type="qcurve"/>
      <point x="398" y="296"/>
      <point x="547" y="74"/>
      <point x="547" y="0" type="qcurve"/>
      <point x="454" y="0" type="line"/>
      <point x="454" y="66"/>
      <point x="341" y="250"/>
      <point x="232" y="334" type="qcurve"/>
      <point x="196" y="316"/>
      <point x="161" y="311" type="qcurve"/>
      <point x="161" y="0" type="line"/>
      <point x="84" y="0" type="line"/>
      <point x="84" y="524" type="line"/>
    </contour>
  </outline>
</glyph>
<glyph name="uni04A2" format="1">
  <advance width="637"/>
  <unicode hex="04A2"/>
  <outline>
    <contour>
      <point x="81" y="0" type="line"/>
      <point x="81" y="698" type="line"/>
      <point x="158" y="698" type="line"/>
      <point x="158" y="396" type="line"/>
      <point x="465" y="396" type="line"/>
      <point x="465" y="698" type="line"/>
      <point x="542" y="698" type="line"/>
      <point x="542" y="61" type="line"/>
      <point x="601" y="61" type="line"/>
      <point x="601" y="-184" type="line"/>
      <point x="560" y="-184" type="line"/>
      <point x="538" y="0" type="line"/>
      <point x="465" y="0" type="line"/>
      <point x="465" y="333" type="line"/>
      <point x="158" y="333" type="line"/>
      <point x="158" y="0" type="line"/>
    </contour>
  </outline>
</glyph>
<glyph name="uni04A4" format="1">
  <advance width="860"/>
  <unicode hex="04A4"/>
  <outline>
    <contour>
      <point x="81" y="0" type="line"/>
      <point x="81" y="698" type="line"/>
      <point x="158" y="698" type="line"/>
      <point x="158" y="396" type="line"/>
      <point x="464" y="396" type="line"/>
      <point x="464" y="698" type="line"/>
      <point x="855" y="698" type="line"/>
      <point x="855" y="634" type="line"/>
      <point x="542" y="634" type="line"/>
      <point x="542" y="0" type="line"/>
      <point x="464" y="0" type="line"/>
      <point x="464" y="333" type="line"/>
      <point x="158" y="333" type="line"/>
      <point x="158" y="0" type="line"/>
    </contour>
  </outline>
</glyph>
<glyph name="uni04B3" format="1">
  <advance width="424"/>
  <unicode hex="04B3"/>
  <outline>
    <contour>
      <point x="171" y="250" type="line"/>
      <point x="28" y="479" type="line"/>
      <point x="110" y="479" type="line"/>
      <point x="212" y="315" type="line"/>
      <point x="314" y="479" type="line"/>
      <point x="397" y="479" type="line"/>
      <point x="254" y="250" type="line"/>
      <point x="410" y="0" type="line"/>
      <point x="410" y="-184" type="line"/>
      <point x="369" y="-184" type="line"/>
      <point x="346" y="0" type="line"/>
      <point x="327" y="0" type="line"/>
      <point x="212" y="183" type="line"/>
      <point x="97" y="0" type="line"/>
      <point x="15" y="0" type="line"/>
    </contour>
  </outline>
</glyph>
<glyph name="uni04B7" format="1">
  <advance width="505"/>
  <unicode hex="04B7"/>
  <outline>
    <contour>
      <point x="28" y="355" type="qcurve" smooth="yes"/>
      <point x="28" y="479" type="line"/>
      <point x="96" y="479" type="line"/>
      <point x="96" y="355" type="line" smooth="yes"/>
      <point x="96" y="299"/>
      <point x="161" y="226"/>
      <point x="287" y="226"/>
      <point x="350" y="333"/>
      <point x="350" y="418" type="qcurve" smooth="yes"/>
      <point x="350" y="479" type="line"/>
      <point x="421" y="479" type="line"/>
      <point x="421" y="61" type="line"/>
      <point x="476" y="61" type="line"/>
      <point x="476" y="-184" type="line"/>
      <point x="435" y="-184" type="line"/>
      <point x="413" y="0" type="line"/>
      <point x="350" y="0" type="line"/>
      <point x="350" y="212" type="line"/>
      <point x="300" y="162"/>
      <point x="224" y="162" type="qcurve" smooth="yes"/>
      <point x="134" y="162"/>
      <point x="28" y="264"/>
    </contour>
  </outline>
</glyph>
<glyph name="uni04C7" format="1">
  <advance width="621"/>
  <unicode hex="04C7"/>
  <outline>
    <contour>
      <point x="541" y="16" type="line" smooth="yes"/>
      <point x="541" y="-98"/>
      <point x="442" y="-205"/>
      <point x="341" y="-205" type="qcurve"/>
      <point x="341" y="-152" type="line"/>
      <point x="400" y="-152"/>
      <point x="465" y="-76"/>
      <point x="465" y="16" type="qcurve" smooth="yes"/>
      <point x="465" y="333" type="line"/>
      <point x="158" y="333" type="line"/>
      <point x="158" y="0" type="line"/>
      <point x="81" y="0" type="line"/>
      <point x="81" y="698" type="line"/>
      <point x="158" y="698" type="line"/>
      <point x="158" y="396" type="line"/>
      <point x="465" y="396" type="line"/>
      <point x="465" y="698" type="line"/>
      <point x="542" y="698" type="line"/>
    </contour>
  </outline>
</glyph>
<glyph name="uni04D8" format="1">
  <advance width="644"/>
  <unicode hex="04D8"/>
  <outline>
    <contour>
      <point x="66" y="550" type="line"/>
      <point x="109" y="625"/>
      <point x="235" y="714"/>
      <point x="306" y="714" type="qcurve" smooth="yes"/>
      <point x="424" y="714"/>
      <point x="600" y="496"/>
      <point x="600" y="349" type="qcurve" smooth="yes"/>
      <point x="600" y="200"/>
      <point x="435" y="-16"/>
      <point x="318" y="-16" type="qcurve" smooth="yes"/>
      <point x="187" y="-16"/>
      <point x="34" y="178"/>
      <point x="34" y="318" type="qcurve"/>
      <point x="521" y="318" type="line"/>
      <point x="522" y="328"/>
      <point x="522" y="349" type="qcurve" smooth="yes"/>
      <point x="522" y="467"/>
      <point x="397" y="643"/>
      <point x="306" y="643" type="qcurve" smooth="yes"/>
      <point x="202" y="643"/>
      <point x="132" y="514" type="qcurve"/>
    </contour>
    <contour>
      <point x="511" y="253" type="qcurve"/>
      <point x="115" y="253" type="line"/>
      <point x="134" y="168"/>
      <point x="245" y="53"/>
      <point x="318" y="53" type="qcurve" smooth="yes"/>
      <point x="388" y="53"/>
      <point x="491" y="165"/>
    </contour>
  </outline>
</glyph>
<glyph name="afii10846" format="1">
  <advance width="539"/>
  <unicode hex="04D9"/>
  <outline>
    <contour>
      <point x="436" y="240" type="line"/>
      <point x="436" y="319"/>
      <point x="335" y="433"/>
      <point x="268" y="433" type="qcurve" smooth="yes"/>
      <point x="195" y="433"/>
      <point x="128" y="392"/>
      <point x="101" y="346" type="qcurve"/>
      <point x="45" y="383" type="line"/>
      <point x="82" y="440"/>
      <point x="180" y="496"/>
      <point x="266" y="496" type="qcurve" smooth="yes"/>
      <point x="357" y="496"/>
      <point x="505" y="343"/>
      <point x="505" y="137"/>
      <point x="359" y="-16"/>
      <point x="177" y="-16"/>
      <point x="30" y="137"/>
      <point x="30" y="240" type="qcurve"/>
    </contour>
    <contour>
      <point x="427" y="177" type="qcurve"/>
      <point x="110" y="177" type="line"/>
      <point x="128" y="120"/>
      <point x="216" y="48"/>
      <point x="320" y="48"/>
      <point x="409" y="120"/>
    </contour>
  </outline>
</glyph>
<glyph name="uni04E9" format="1">
  <advance width="544"/>
  <unicode hex="04E9"/>
  <outline>
    <contour>
      <point x="35" y="343"/>
      <point x="181" y="496"/>
      <point x="363" y="496"/>
      <point x="510" y="343"/>
      <point x="510" y="240" type="qcurve" smooth="yes"/>
      <point x="510" y="136"/>
      <point x="365" y="-16"/>
      <point x="183" y="-16"/>
      <point x="35" y="137"/>
    </contour>
    <contour>
      <point x="108" y="273" type="qcurve"/>
      <point x="437" y="273" type="line"/>
      <point x="427" y="340"/>
      <point x="331" y="432"/>
      <point x="213" y="432"/>
      <point x="119" y="341"/>
    </contour>
    <contour>
      <point x="438" y="210" type="qcurve"/>
      <point x="106" y="210" type="line"/>
      <point x="116" y="141"/>
      <point x="212" y="47"/>
      <point x="332" y="47"/>
      <point x="428" y="141"/>
    </contour>
  </outline>
</glyph>
<glyph name="uni04FE" format="1">
  <advance width="506"/>
  <unicode hex="04FE"/>
  <outline>
    <contour>
      <point x="65" y="328" type="line"/>
      <point x="65" y="391" type="line"/>
      <point x="193" y="391" type="line"/>
      <point x="29" y="698" type="line"/>
      <point x="115" y="698" type="line"/>
      <point x="253" y="437" type="line"/>
      <point x="392" y="698" type="line"/>
      <point x="478" y="698" type="line"/>
      <point x="314" y="391" type="line"/>
      <point x="445" y="391" type="line"/>
      <point x="445" y="328" type="line"/>
      <point x="312" y="328" type="line"/>
      <point x="486" y="0" type="line"/>
      <point x="400" y="0" type="line"/>
      <point x="253" y="276" type="line"/>
      <point x="106" y="0" type="line"/>
      <point x="20" y="0" type="line"/>
      <point x="195" y="328" type="line"/>
    </contour>
  </outline>
</glyph>
<glyph name="uni1DBF" format="1">
  <advance width="389"/>
  <unicode hex="1DBF"/>
  <outline>
    <contour>
      <point x="330" y="528" type="qcurve" smooth="yes"/>
      <point x="330" y="439"/>
      <point x="252" y="308"/>
      <point x="182" y="308" type="qcurve" smooth="yes"/>
      <point x="133" y="308"/>
      <point x="64" y="376"/>
      <point x="35" y="473"/>
      <point x="35" y="528" type="qcurve" smooth="yes"/>
      <point x="35" y="618"/>
      <point x="112" y="751"/>
      <point x="182" y="751" type="qcurve" smooth="yes"/>
      <point x="231" y="751"/>
      <point x="300" y="681"/>
      <point x="330" y="583"/>
    </contour>
    <contour>
      <point x="182" y="365" type="qcurve" smooth="yes"/>
      <point x="216" y="365"/>
      <point x="259" y="449"/>
      <point x="263" y="507" type="qcurve"/>
      <point x="101" y="507" type="line"/>
      <point x="106" y="446"/>
      <point x="149" y="365"/>
    </contour>
    <contour>
      <point x="101" y="558" type="qcurve"/>
      <point x="263" y="558" type="line"/>
      <point x="258" y="616"/>
      <point x="215" y="695"/>
      <point x="182" y="695" type="qcurve" smooth="yes"/>
      <point x="147" y="695"/>
      <point x="105" y="615"/>
    </contour>
  </outline>
</glyph>
<glyph name="uni1EA0" format="1">
  <advance width="589"/>
  <unicode hex="1EA0"/>
  <outline>
    <contour>
      <point x="295" y="743" type="move" name="above"/>
    </contour>
    <component base="dotbelowcomb" xOffset="611"/>
    <component base="A"/>
  </outline>
</glyph>
<glyph name="uni1EA1" format="1">
  <advance width="574"/>
  <unicode hex="1EA1"/>
  <outline>
    <contour>
      <point x="282" y="581" type="move" name="above"/>
    </contour>
    <component base="dotbelowcomb" xOffset="596"/>
    <component base="a"/>
  </outline>
</glyph>
<glyph name="uni1FED" format="1">
  <advance width="452"/>
  <unicode hex="1FED"/>
  <outline>
    <contour>
      <point x="243" y="738" type="line"/>
      <point x="207" y="722" type="line"/>
      <point x="89" y="902" type="line"/>
      <point x="152" y="932" type="line"/>
    </contour>
    <contour>
      <point x="259" y="701"/>
      <point x="291" y="733"/>
      <point x="337" y="733"/>
      <point x="371" y="701"/>
      <point x="371" y="655"/>
      <point x="337" y="623"/>
      <point x="291" y="623"/>
      <point x="259" y="655"/>
    </contour>
    <contour>
      <point x="59" y="701"/>
      <point x="92" y="733"/>
      <point x="138" y="733"/>
      <point x="171" y="701"/>
      <point x="171" y="655"/>
      <point x="138" y="623"/>
      <point x="92" y="623"/>
      <point x="59" y="655"/>
    </contour>
  </outline>
</glyph>
<glyph name="uni1FFD" format="1">
  <advance width="291"/>
  <unicode hex="1FFD"/>
  <outline>
    <contour>
      <point x="72" y="634" type="line"/>
      <point x="163" y="827" type="line"/>
      <point x="225" y="798" type="line"/>
      <point x="108" y="617" type="line"/>
    </contour>
  </outline>
</glyph>
<glyph name="quotedblbase" format="1">
  <advance width="409"/>
  <unicode hex="201E"/>
  <outline>
    <contour>
      <point x="249" y="71"/>
      <point x="281" y="103"/>
      <point x="327" y="103"/>
      <point x="359" y="71"/>
      <point x="359" y="48" type="qcurve" smooth="yes"/>
      <point x="359" y="13"/>
      <point x="340" y="-48"/>
      <point x="313" y="-86"/>
      <point x="300" y="-100" type="qcurve"/>
      <point x="286" y="-112"/>
      <point x="276" y="-118" type="qcurve" smooth="yes"/>
      <point x="267" y="-124" type="line"/>
      <point x="250" y="-114" type="line"/>
      <point x="289" y="-75"/>
      <point x="304" y="-8" type="qcurve"/>
      <point x="281" y="-8"/>
      <point x="249" y="25"/>
    </contour>
    <contour>
      <point x="49" y="71"/>
      <point x="81" y="103"/>
      <point x="127" y="103"/>
      <point x="160" y="71"/>
      <point x="160" y="48" type="qcurve" smooth="yes"/>
      <point x="160" y="13"/>
      <point x="141" y="-48"/>
      <point x="114" y="-86"/>
      <point x="100" y="-100" type="qcurve" smooth="yes"/>
      <point x="88" y="-112"/>
      <point x="78" y="-118" type="qcurve" smooth="yes"/>
      <point x="68" y="-124" type="line"/>
      <point x="50" y="-114" type="line"/>
      <point x="89" y="-75"/>
      <point x="104" y="-8" type="qcurve"/>
      <point x="81" y="-8"/>
      <point x="49" y="25"/>
    </contour>
  </outline>
</glyph>
<glyph name="afii61352" format="1">
  <advance width="945"/>
  <unicode hex="2116"/>
  <outline>
    <contour>
      <point x="696" y="396"/>
      <point x="607" y="494"/>
      <point x="607" y="616"/>
      <point x="696" y="713"/>
      <point x="814" y="713"/>
      <point x="902" y="616"/>
      <point x="902" y="555" type="qcurve" smooth="yes"/>
      <point x="902" y="493"/>
      <point x="814" y="396"/>
    </contour>
    <contour>
      <point x="714" y="665"/>
      <point x="658" y="597"/>
      <point x="658" y="511"/>
      <point x="716" y="444"/>
      <point x="794" y="444"/>
      <point x="850" y="513"/>
      <point x="850" y="599"/>
      <point x="792" y="665"/>
    </contour>
    <contour>
      <point x="902" y="292" type="line"/>
      <point x="607" y="292" type="line"/>
      <point x="607" y="344" type="line"/>
      <point x="902" y="344" type="line"/>
    </contour>
    <contour>
      <point x="81" y="0" type="line"/>
      <point x="81" y="698" type="line"/>
      <point x="158" y="698" type="line"/>
      <point x="487" y="126" type="line"/>
      <point x="487" y="698" type="line"/>
      <point x="563" y="698" type="line"/>
      <point x="563" y="0" type="line"/>
      <point x="487" y="0" type="line"/>
      <point x="158" y="570" type="line"/>
      <point x="158" y="0" type="line"/>
    </contour>
  </outline>
</glyph>
<glyph name="uniA78B" format="1">
  <advance width="238"/>
  <unicode hex="A78B"/>
  <outline>
    <contour>
      <point x="84" y="170" type="line"/>
      <point x="84" y="698" type="line"/>
      <point x="154" y="698" type="line"/>
      <point x="154" y="170" type="line"/>
    </contour>
  </outline>
</glyph>
